<?xml version="1.0" standalone="no"?><!DOCTYPE svg PUBLIC "-//W3C//DTD SVG 1.1//EN" "http://www.w3.org/Graphics/SVG/1.1/DTD/svg11.dtd"><svg t="1631957032112" class="icon" viewBox="0 0 1024 1024" version="1.1" xmlns="http://www.w3.org/2000/svg" p-id="2429" xmlns:xlink="http://www.w3.org/1999/xlink" width="200" height="200"><defs><style type="text/css"></style></defs><path d="M932.571429 54.857143H91.428571c-20.228571 0-36.571429 16.342857-36.571428 36.571428v841.142858c0 20.228571 16.342857 36.571429 36.571428 36.571428h841.142858c20.228571 0 36.571429-16.342857 36.571428-36.571428V91.428571c0-20.228571-16.342857-36.571429-36.571428-36.571428z m-45.714286 832H137.142857V137.142857h749.714286v749.714286z" fill="#333333" p-id="2430"></path><path d="M137.142857 886.857143h749.714286V137.142857H137.142857v749.714286z m388-254.857143h211.428572c4.685714 0 8.571429 4.114286 8.571428 9.142857v54.857143c0 5.028571-3.885714 9.142857-8.571428 9.142857h-211.428572c-4.685714 0-8.571429-4.114286-8.571428-9.142857v-54.857143c0-5.028571 3.885714-9.142857 8.571428-9.142857zM278.857143 624.342857c0-2.628571 1.257143-5.257143 3.314286-6.971428L407.657143 512l-125.485714-105.371429a8.72 8.72 0 0 1-3.314286-6.971428V328c0-7.771429 9.028571-12 14.971428-6.971429l219.428572 183.885715c4.457143 3.657143 4.457143 10.4 0 14.057143l-219.428572 184c-5.942857 5.028571-14.971429 0.8-14.971428-6.971429v-71.657143z" fill="#E6E6E6" p-id="2431"></path><path d="M293.828571 702.971429l219.428572-184c4.457143-3.657143 4.457143-10.4 0-14.057143l-219.428572-183.885715A9.085714 9.085714 0 0 0 278.857143 328v71.657143c0 2.742857 1.142857 5.257143 3.314286 6.971428L407.657143 512l-125.485714 105.371429a9.257143 9.257143 0 0 0-3.314286 6.971428V696c0 7.771429 9.028571 12 14.971428 6.971429zM516.571429 696c0 5.028571 3.885714 9.142857 8.571428 9.142857h211.428572c4.685714 0 8.571429-4.114286 8.571428-9.142857v-54.857143c0-5.028571-3.885714-9.142857-8.571428-9.142857h-211.428572c-4.685714 0-8.571429 4.114286-8.571428 9.142857v54.857143z" fill="#333333" p-id="2432"></path></svg>